<?xml version="1.0" encoding="UTF-8"?>
<svg id="Layer_1" xmlns="http://www.w3.org/2000/svg" version="1.1" viewBox="0 0 920.63 920.63">
  <!-- Generator: Adobe Illustrator 29.8.6, SVG Export Plug-In . SVG Version: 2.1.1 Build 1)  -->
  <defs>
    <style>
      .st0 {
        fill: #fff;
      }
    </style>
  </defs>
  <g>
    <path class="st0" d="M420.74,743.91c-8.24,0-13.14,3.16-13.14,8.44s5.04,8.37,13.14,8.37,13.14-3.2,13.14-8.37c0-5.6-4.42-8.44-13.14-8.44"/>
    <path class="st0" d="M420.74,734.46c7.04,0,11.76-2.88,11.76-7.15,0-5.63-6.07-7.64-11.76-7.64s-11.78,2.01-11.78,7.64c0,4.27,4.73,7.15,11.78,7.15"/>
    <path class="st0" d="M569.36,740.43c-5.91,0-12.83,2.66-12.83,10.15,0,6.17,4.86,10.15,12.34,10.15,7.88,0,12.59-3.89,12.59-10.39,0-5.84-4.97-9.9-12.1-9.9"/>
    <path class="st0" d="M504.64,597.89h-6.25v19.15h6.25c5.33,0,7.23-5.23,7.23-10.12,0-6.16-2.3-9.03-7.23-9.03"/>
    <path class="st0" d="M493.46,719.66c-11.22,0-12.1,7.71-12.1,10.07,0,5.36,4.84,9.1,11.79,9.1,7.55,0,12.82-3.87,12.82-9.43,0-6.02-4.79-9.75-12.51-9.75"/>
    <polygon class="st0" points="425.25 495.75 508.55 495.75 467.02 411.76 425.25 495.75"/>
    <path class="st0" d="M461.45,37.34c-233.13,0-422.79,189.66-422.79,422.78s189.66,422.79,422.79,422.79,422.78-189.66,422.78-422.79S694.57,37.34,461.45,37.34M583.46,147.03c24.91,0,47.95,6.22,64.88,17.52,17.07,11.4,27.19,27.5,28.51,45.33l.03.43h-35.43l-.06-.32c-5.95-31.12-36.09-37.65-60.31-37.65s-46.47,7.49-61.3,21.68c-16.2,15.51-24.43,38.06-24.43,67.04s8.22,51.53,24.43,67.04c14.84,14.19,36.04,21.68,61.3,21.68s57.52-10.72,63.31-40.94l.05-.32h35.47l-.06.45c-3.27,22.53-15.13,39.69-35.26,51-17.59,9.89-41.72,15.12-69.79,15.12-35.96,0-65.55-11.98-85.58-34.63-17.77-20.09-27.54-48.28-27.54-79.39,0-52.6,31.9-114.02,121.79-114.02M403.31,283.3c-12.87-4.85-30.26-6.88-48.68-9.04-44.85-5.25-95.71-11.22-95.71-61.36,0-20.45,8.72-37.28,25.18-48.65,16.32-11.27,40.32-17.22,69.41-17.22,34.35,0,92.45,8.25,95.78,63.46l.03.41h-33.66l-.04-.35c-2.5-25.36-25.51-38.22-68.38-38.22-15.27,0-29.4,3.74-39.76,10.55-10.91,7.17-16.68,16.93-16.68,28.22,0,14.65,11.26,23.99,33.47,27.72l80.44,13.76c33.18,5.67,51.46,24.51,51.46,53.01,0,21.27-9.5,38.9-27.46,51-17.92,12.09-44.03,18.46-75.49,18.46s-55.23-5.85-72.14-17.38c-17.34-11.83-27.1-29.74-29.02-53.25l-.04-.43h33.7v.37c.88,27.99,27.42,45.37,69.3,45.37s69.28-16.04,69.28-40.88c0-12.06-6.67-20.19-20.98-25.59M143.45,550.58c-13.61-9.27-21.27-23.33-22.78-41.78l-.04-.41h26.57v.37c.68,21.87,21.45,35.47,54.19,35.47s54.19-12.54,54.19-31.93c0-20.67-25.24-23.63-54.47-27.06-35.18-4.12-75.05-8.78-75.05-48.13,0-16.05,6.83-29.26,19.75-38.18,12.8-8.83,31.62-13.51,54.42-13.51,18.05,0,44.49,2.91,60.74,17.88v-13.43h168.5v21.39h-71.67v148.5h-25.15v-148.5h-64.87c4.22,6.35,6.97,14.22,7.57,23.94l.03.41h-26.53l-.04-.35c-1.96-19.82-19.96-29.86-53.49-29.86-25.55,0-44.11,12.74-44.11,30.29,0,11.44,8.79,18.71,26.15,21.64l63.01,10.77c26.03,4.45,40.37,19.23,40.37,41.61,0,16.68-7.45,30.52-21.55,40.03-14.05,9.46-34.51,14.47-59.19,14.47s-43.29-4.58-56.54-13.63M226.16,637.23c0,5.25-1.77,22.39-24.67,22.39-15.96,0-24.75-7.94-24.75-22.39v-51.13h15.74v50.15c0,7.89,2.97,11.89,8.82,11.89,6.15,0,9.13-3.89,9.13-11.89v-50.15h15.74v51.13ZM301.28,658.45h-20.37l-.1-.26-18.97-50.83v51.09h-14.75v-72.34h20.87l18.57,48.35v-48.35h14.76v72.34ZM338.24,658.45h-15.74v-72.34h15.74v72.34ZM370.22,768.63h-13.11v-44.26c-4.39,3.76-11.7,6.35-15.79,7.59l-.5.15v-11.67l.27-.09c7.68-2.41,12.15-4.73,16.48-8.51l.12-.1h12.54v56.89ZM371.44,658.45l-17.83-72.34h16.37l.06.31,10.83,50.78,12.25-51.09h15.58l-19.13,72.34h-18.14ZM441.98,764.05c-4.74,4.07-11.88,6.12-21.24,6.12s-16.5-2.05-21.24-6.12c-4.96-4.25-5.5-9.19-5.5-11.13,0-6.84,4.52-11.74,12.77-13.88-7.57-2.07-11.39-6.37-11.39-12.8,0-7.75,6.66-16.04,25.36-16.04s25.36,8.29,25.36,16.04c0,6.43-3.82,10.73-11.39,12.8,10.52,2.7,12.77,8.99,12.77,13.88,0,1.94-.53,6.88-5.5,11.13M464.59,658.45h-40.61v-72.34h39.82v11.79h-24.08v16.86h22.19v11.78h-22.19v20.13h24.87v11.79ZM492.33,770.17c-13.84,0-23.5-6.49-23.5-15.79v-2.01h13.3l.04.35c.67,5.32,4.42,8.01,11.13,8.01,12.81,0,14.29-9.67,14.29-16.95v-1.14c-4.25,3.86-9.65,5.66-16.89,5.66-16.9,0-22.92-9.32-22.92-18.06,0-12.54,9.57-20.01,25.59-20.01,19.15,0,27.31,9.15,27.31,30.63,0,20.03-9.01,29.34-28.35,29.34M513.9,658.45l-.1-.23c-1.73-3.82-1.68-8.01-1.63-12.05,0-.67.01-1.33.01-2v-1.54c.03-4.82.05-8.99-2.38-11.44-1.6-1.6-4.2-2.38-7.94-2.38h-3.47v29.63h-15.75v-72.34h28.04c10.73,0,17.13,7.15,17.13,19.12,0,9.75-4,15.65-11.89,17.57,4.18.66,11.59,2.85,11.59,14.24,0,4.49.3,17.97,1.64,20.85l.26.56h-15.52ZM518.31,515.74h-103.29l-21.78,44.03h-28.04l.28-.57,87.01-169.32h29.05l.12.21,87.18,169.68h-28.75l-21.77-44.03ZM569.84,596.41c-4.74,0-7.35,2.57-7.35,7.23,0,5.71,5.58,8.73,12.03,12.21,8.48,4.58,18.09,9.77,18.09,22.67,0,18.7-13.54,21.1-25.36,21.1-7.71,0-13.42-1.92-16.97-5.71-3.64-3.87-5.15-9.76-4.62-17.99l.03-.36h15.71v.39c0,7.36.57,12.19,8.13,12.19,4.53,0,7.14-2.81,7.14-7.73,0-5.41-5.59-8.62-12.06-12.36-8.47-4.88-18.08-10.42-18.08-22.63,0-13.6,8.07-20.5,23.98-20.5,7.81,0,13.33,1.83,16.84,5.59,3.42,3.65,4.86,9,4.38,16.33l-.03.36h-15.33v-.39c0-5.15-.77-10.41-6.55-10.41M569.6,770.17c-18.99,0-27.46-9.22-27.46-29.9,0-19.1,10.46-30.06,28.68-30.06,5.86,0,11.3,1.39,15.27,3.94,4.8,3.05,7.35,7.66,7.35,13.31v.39h-13.6v-.39c0-5.76-5.33-7.8-9.92-7.8-9.35,0-13.88,5.15-14.63,16.67,4.88-3.95,9.56-5.36,17.39-5.36,13.16,0,22.36,7.42,22.36,18.06,0,12.85-9.98,21.14-25.45,21.14M627.71,658.45h-15.74v-72.34h15.74v72.34ZM692.32,598.78h-16.66v59.66h-15.74v-59.66h-16.66v-12.68h49.05v12.68ZM736.81,633.36v25.09h-15.74v-25.1l-18.93-47.24h17.21l10.43,29.49,11.12-29.49h16.11l-20.21,47.26ZM662.91,559.76v-148.5h-61.54v148.5h-25.13v-148.5h-71.68v-21.39h285.6v19.99h-102.13v52.63h95.57v19.97h-95.57v57.31h104.94v19.99h-130.07Z"/>
  </g>
  <path class="st0" d="M460.31,0C206.08,0,0,206.09,0,460.32s206.08,460.31,460.31,460.31,460.32-206.09,460.32-460.31S714.54,0,460.31,0M461.45,904.71c-245.15,0-444.58-199.44-444.58-444.6S216.29,15.53,461.45,15.53s444.58,199.43,444.58,444.58-199.43,444.6-444.58,444.6"/>
  <path class="st0" d="M801.46,790.4c4.85,0,9.59,1.25,14.22,3.73,4.62,2.5,8.22,6.06,10.81,10.7,2.58,4.64,3.87,9.48,3.87,14.51s-1.28,9.77-3.82,14.37c-2.53,4.6-6.11,8.17-10.69,10.72-4.58,2.54-9.39,3.81-14.38,3.81s-9.81-1.27-14.4-3.81c-4.58-2.54-8.16-6.12-10.72-10.72-2.56-4.6-3.83-9.4-3.83-14.37s1.29-9.88,3.9-14.51c2.6-4.65,6.2-8.2,10.82-10.7,4.64-2.48,9.37-3.73,14.23-3.73M801.46,795.19c-4.07,0-8.02,1.05-11.87,3.12-3.85,2.09-6.86,5.06-9.02,8.93-2.18,3.87-3.25,7.9-3.25,12.1s1.06,8.16,3.19,11.97c2.13,3.82,5.13,6.8,8.95,8.93,3.83,2.13,7.84,3.2,12.01,3.2s8.16-1.07,12-3.2c3.83-2.13,6.82-5.11,8.94-8.93,2.12-3.81,3.18-7.81,3.18-11.97s-1.08-8.22-3.24-12.1c-2.16-3.87-5.16-6.84-9.03-8.93-3.86-2.08-7.81-3.12-11.84-3.12M788.77,835.33v-31.13h10.7c3.64,0,6.29.28,7.93.87,1.64.57,2.94,1.58,3.91,3.01.97,1.43,1.45,2.94,1.45,4.56,0,2.27-.81,4.26-2.43,5.94-1.63,1.69-3.78,2.63-6.46,2.84,1.1.45,1.98,1.01,2.63,1.64,1.25,1.24,2.79,3.29,4.61,6.17l3.8,6.11h-6.13l-2.76-4.91c-2.17-3.86-3.93-6.28-5.26-7.26-.92-.71-2.26-1.07-4.03-1.07h-2.94v13.23h-5.02ZM793.79,817.81h6.09c2.91,0,4.89-.44,5.95-1.3,1.07-.87,1.6-2.01,1.6-3.45,0-.93-.26-1.74-.77-2.47-.5-.74-1.21-1.28-2.13-1.64-.9-.36-2.58-.53-5.03-.53h-5.71v9.39Z"/>
</svg>